PathFileType	4	(X/Y/Z)	E:\Qualisys_Data\Carbon_Farble_Plate\Data\Amateur_Runner\S1\T1\S1T1V11_c3d.trc
DataRate	CameraRate	NumFrames	NumMarkers	Units	OrigDataRate	OrigDataStartFrame	OrigNumFrames
200.000000	200.000000	4	39	mm	200.000000	0	326
Frame#	Time	LSHO			RSHO			LICST			RICST			LASIS			LHEEL			RASIS			LTROC			RTROC			SACR			LTH1			LSK4			LTH2			LTH3			RHM5			LSK2			LTH4			RTH1			LTOE			RTH2			RTH3			RTH4			LLEP			RLEP			LSK1			LSK3			RSK1			LHM5			RSK2			LFT1			RSK3			RSK4			LLME			RLME			RTOE			RHEEL			RFT1			RFT2			LFT2			
		X1	Y1	Z1	X2	Y2	Z2	X3	Y3	Z3	X4	Y4	Z4	X5	Y5	Z5	X6	Y6	Z6	X7	Y7	Z7	X8	Y8	Z8	X9	Y9	Z9	X10	Y10	Z10	X11	Y11	Z11	X12	Y12	Z12	X13	Y13	Z13	X14	Y14	Z14	X15	Y15	Z15	X16	Y16	Z16	X17	Y17	Z17	X18	Y18	Z18	X19	Y19	Z19	X20	Y20	Z20	X21	Y21	Z21	X22	Y22	Z22	X23	Y23	Z23	X24	Y24	Z24	X25	Y25	Z25	X26	Y26	Z26	X27	Y27	Z27	X28	Y28	Z28	X29	Y29	Z29	X30	Y30	Z30	X31	Y31	Z31	X32	Y32	Z32	X33	Y33	Z33	X34	Y34	Z34	X35	Y35	Z35	X36	Y36	Z36	X37	Y37	Z37	X38	Y38	Z38	X39	Y39	Z39	

1	0	-2675.119384765625	1533.746948242188	-591.464111328125	-2744.196044921875	1523.23779296875	-274.8047180175781	-2735.248291015625	1054.218383789062	-570.0654907226562	-2735.64453125	1084.136596679688	-274.7941284179688	-2693.626220703125	1011.855651855469	-544.9889526367188	-3243.16748046875	243.9511566162109	-477.3316040039062	-2698.97216796875	1035.43115234375	-281.7362060546875	-2823.483154296875	948.2720947265625	-582.5048828125	-2795.163818359375	947.2052612304688	-241.7927856445312	-2851.729248046875	1091.212280273438	-418.5406188964844	-2751.551025390625	771.4014892578125	-563.7910766601562	-3140.50341796875	356.1475219726562	-509.5433959960938	-2828.694580078125	793.4428100585938	-590.6842651367188	-2787.28369140625	674.6466064453125	-547.1793212890625	-2502.55615234375	128.6407318115234	-261.1708068847656	-3076.73095703125	428.5869750976562	-546.7908325195312	-2865.73779296875	701.71484375	-565.9756469726562	-2621.407470703125	878.8306884765625	-275.6731567382812	-3083.5166015625	55.86487579345703	-478.2243957519531	-2684.7587890625	837.9921875	-245.52783203125	-2569.4755859375	791.743896484375	-282.375732421875	-2637.169677734375	751.2810668945312	-261.8625183105469	-2893.061279296875	546.8478393554688	-531.2494506835938	-2548.412353515625	609.953369140625	-294.6347351074219	-3015.066650390625	372.7956237792969	-540.8098754882812	-3086.98876953125	301.5123596191406	-536.886474609375	-2568.697998046875	416.5355224609375	-271.9498596191406	-3142.85595703125	82.92780303955078	-540.1697387695312	-2650.068359375	428.7269287109375	-285.3307800292969	-3252.800537109375	220.7771759033203	-446.5045776367188	-2581.88720703125	317.6746215820312	-284.2892761230469	-2658.607421875	329.5693664550781	-306.3734741210938	-3186.439697265625	227.8608856201172	-526.4789428710938	-2628.6435546875	189.0945281982422	-285.5123901367188	-2434.43359375	152.4741821289062	-335.6224060058594	-2690.650146484375	145.4124755859375	-330.0321960449219	-2676.32470703125	116.3667526245117	-361.0524597167969	-2684.36767578125	120.8451385498047	-302.6670227050781	-3259.947265625	216.6631317138672	-499.68115234375
2	0.005	-2657.22265625	1536.610107421875	-588.8755493164062	-2727.392822265625	1525.039794921875	-273.5442810058594	-2717.0029296875	1056.583740234375	-569.7719116210938	-2718.01171875	1085.946166992188	-274.1611022949219	-2675.540283203125	1013.78466796875	-544.43505859375	-3229.334716796875	253.9517974853516	-477.25732421875	-2681.021728515625	1037.193237304688	-281.4421691894531	-2805.8955078125	951.233642578125	-582.3114013671875	-2777.023681640625	948.471923828125	-241.5107727050781	-2833.3408203125	1093.258056640625	-417.9851684570312	-2735.54345703125	773.8517456054688	-564.4630126953125	-3128.51806640625	361.1135559082031	-508.9205322265625	-2812.830810546875	796.6385498046875	-590.7727661132812	-2772.494140625	677.7874145507812	-549.2987670898438	-2468.63232421875	129.7500152587891	-260.793701171875	-3064.493896484375	434.210205078125	-546.9306640625	-2851.052978515625	705.6979370117188	-566.4055786132812	-2603.63720703125	879.8228759765625	-274.6348876953125	-3078.8701171875	55.03049850463867	-479.4451293945312	-2667.662841796875	839.2318115234375	-246.4635009765625	-2553.785400390625	791.6607055664062	-281.6637573242188	-2621.320556640625	751.9813232421875	-263.016845703125	-2879.7021484375	550.3204345703125	-531.8919677734375	-2533.538818359375	609.4237060546875	-294.367431640625	-3003.01220703125	377.2713928222656	-541.2304077148438	-3075.28759765625	306.341552734375	-536.8502197265625	-2547.52392578125	415.4757995605469	-271.2047729492188	-3136.01123046875	86.35923767089844	-538.993896484375	-2629.05322265625	423.7554931640625	-284.4724426269531	-3239.6962890625	231.4680023193359	-446.3504638671875	-2555.12744140625	315.6491394042969	-283.7326965332031	-2633.807861328125	324.5177917480469	-305.710205078125	-3173.8173828125	234.2841644287109	-526.6309814453125	-2596.588134765625	184.9470977783203	-284.22265625	-2400.81689453125	156.6707611083984	-336.0309448242188	-2657.5009765625	138.7156372070312	-329.1469421386719	-2641.3857421875	110.0907440185547	-359.5381774902344	-2649.27197265625	114.2238388061523	-301.5208129882812	-3245.94384765625	226.6915283203125	-499.64111328125
3	0.01	-2640.369140625	1539.984985351562	-587.3392944335938	-2710.608642578125	1527.173461914062	-272.6766052246094	-2698.61181640625	1059.037475585938	-569.138671875	-2700.064697265625	1087.0205078125	-273.98583984375	-2657.051513671875	1015.699035644531	-543.834228515625	-3214.948974609375	263.6954956054688	-477.9894409179688	-2662.849365234375	1038.324584960938	-281.2415771484375	-2788.518798828125	953.8829345703124	-582.3237915039062	-2759.425048828125	950.0927124023438	-241.8026885986328	-2815.02392578125	1095.396240234375	-417.3625183105469	-2719.947509765625	775.8809204101562	-564.6935424804688	-3116.098876953125	366.3585205078125	-508.918701171875	-2796.912841796875	799.6507568359375	-590.9676513671875	-2757.383544921875	679.7769165039062	-550.1099243164062	-2434.599365234375	131.9693450927734	-261.348388671875	-3051.67919921875	438.8939819335938	-546.7769775390625	-2835.824462890625	708.4661254882812	-566.7499389648438	-2586.09326171875	879.8369140625	-273.569580078125	-3075.642578125	52.63355255126953	-479.8002319335938	-2651.71728515625	839.5137939453125	-246.3040466308594	-2537.30126953125	790.9953002929688	-280.9684753417969	-2605.853271484375	751.6931762695312	-263.7973022460938	-2866.01513671875	553.6990356445312	-533.1485595703125	-2519.062255859375	608.5225219726562	-294.0895385742188	-2990.27099609375	381.6825866699219	-541.5158081054688	-3064.17919921875	312.0025939941406	-538.082275390625	-2526.497802734375	414.0399169921875	-269.0018005371094	-3130.19677734375	90.68888854980467	-538.1942138671875	-2607.58251953125	419.0895385742188	-282.4193420410156	-3225.88720703125	241.6112060546875	-446.7861022949219	-2529.838623046875	315.0306701660156	-282.5221252441406	-2608.32666015625	320.1066589355469	-304.83349609375	-3162.88720703125	241.0400695800781	-528.2274780273438	-2565.475341796875	181.7489929199219	-283.6518249511719	-2368.460205078125	161.2321929931641	-336.24072265625	-2623.4560546875	132.1659698486328	-327.894287109375	-2607.29931640625	105.0020370483398	-358.9816589355469	-2614.7666015625	108.6199951171875	-300.8299865722656	-3237.41064453125	241.3763122558594	-499.8190002441406
4	0.015	-2622.642822265625	1542.238037109375	-584.7778930664062	-2694.084716796875	1528.921020507812	-270.9663391113281	-2680.6298828125	1060.830200195312	-568.7321166992188	-2682.0947265625	1087.710083007812	-273.5656433105469	-2639.187255859375	1017.298706054688	-543.5402221679688	-3198.707763671875	273.9456176757812	-476.8219604492188	-2645.2197265625	1038.855712890625	-280.0644226074219	-2770.574462890625	956.5665283203124	-581.572509765625	-2742.16943359375	951.1727294921876	-242.0019683837891	-2797.341064453125	1097.587646484375	-417.1210327148438	-2703.861572265625	777.93017578125	-565.326171875	-3103.129150390625	371.6094360351562	-509.5138244628906	-2780.397705078125	802.9786376953125	-590.7232055664062	-2741.73291015625	682.0419311523438	-550.8978271484375	-2401.58154296875	133.6521606445312	-261.1637878417969	-3037.62939453125	443.3427429199219	-545.9950561523438	-2819.52587890625	711.1927490234375	-566.323486328125	-2569.3623046875	879.4740600585938	-272.2123107910156	-3070.682861328125	51.74007415771484	-479.654052734375	-2634.945556640625	839.1802978515625	-246.2524566650391	-2520.397705078125	789.9819946289062	-279.9650573730469	-2590.9560546875	751.096435546875	-264.835693359375	-2851.135986328125	556.5877075195312	-533.714599609375	-2505.201416015625	607.9664916992188	-293.3887023925781	-2977.199951171875	385.3893127441406	-542.0302124023438	-3051.207763671875	315.8391418457031	-537.948486328125	-2505.582763671875	413.6219787597656	-267.5758972167969	-3122.915283203125	95.3232650756836	-536.9966430664062	-2587.546630859375	414.452392578125	-282.5887451171875	-3211.639404296875	252.2102813720703	-446.5028686523438	-2505.142822265625	313.2955017089844	-281.8158874511719	-2584.223388671875	314.8385009765625	-303.77392578125	-3150.835693359375	247.4455108642578	-527.9406127929688	-2535.059814453125	178.3940734863281	-283.160888671875	-2337.162353515625	165.8297424316406	-336.3545837402344	-2590.631103515625	126.8151168823242	-327.0965881347656	-2573.587646484375	100.0871353149414	-358.2603454589844	-2581.4140625	103.4094619750977	-300.600830078125	-3222.876220703125	252.0592956542969	-499.9144897460938
